# xmcd CD database file generated by Grip 3.2.0
# 
# Track frame offsets:
#       150
#       10963
#       28505
#       53735
#       66693
#       90202
#       107427
#       139931
#       169833
#       190468
#       204078
#       223030
#       232476
#       258165
#       274833
#       295295
#       321472
# 
# Disc length: 4451 seconds
# 
# Revision: 1
# Processed by: cddbd v1.5.1PL0 Copyright (c) Steve Scherf et al.
# Submitted via: Grip 3.2.0
# 
DISCID=04116111
DTITLE=Various Artist - Forum West
DYEAR=2004
DGENRE=Jazz
TTITLE0=Wolfgang Lauth Sextet - Intrada
TTITLE1=Hans Koller Ensemble - Mingus Privat
TTITLE2=Joe Haider Septet - Straight Out
TTITLE3=Hans Koller Ensemble - Casa Loma
TTITLE4=Joe Haider and His Orchestra - Hymnus for Che
TTITLE5=Wolfgang Dauner Trio - Freefall
TTITLE6=Rolf and Joachim Kuhn Quartet - Arabia Rock
TTITLE7=Ronnie Ross and His Band - Tranquology
TTITLE8=Hans Koller Ensemble - Saint John Perse
TTITLE9=Ronnie Ross and His Band - Last of the Wine
TTITLE10=Joe Nay and Fritz Pauner - Beta Draco
TTITLE11=Hans Koller Ensemble - Zoot
TTITLE12=Wolfgang Dauner Trio - Ten Notices
TTITLE13=Fritz Pauer Trio - Red Roof
TTITLE14=Hans Koller Ensemble - Call Me Eric
TTITLE15=Joe Haider Septet - Eternal Oil Lamp
TTITLE16=Hans Koller Ensemble - Lucky Tom
EXTD=YEAR: 2004
EXTT0=
EXTT1=
EXTT2=
EXTT3=
EXTT4=
EXTT5=
EXTT6=
EXTT7=
EXTT8=
EXTT9=
EXTT10=
EXTT11=
EXTT12=
EXTT13=
EXTT14=
EXTT15=
EXTT16=
PLAYORDER=
